<svg width="50" height="12" viewBox="0 0 50 12" fill="none" xmlns="http://www.w3.org/2000/svg">
<path fill-rule="evenodd" clip-rule="evenodd" d="M4.4458 0C3.51663 0 2.41672 0.860434 1.50838 2.30608C0.562778 3.80453 0.0426766 5.51471 0 7.26623C0 9.62311 1.3708 12 4.4458 12C7.51247 12 8.88753 9.62311 8.88753 7.26623C8.84438 5.51534 8.32586 3.8056 7.38332 2.30608C6.46665 0.858834 5.3708 0 4.4458 0ZM28.4458 3.53613H31.5542V11.3584H34.8875V3.53451H38V0.640011H28.4458V3.53332V3.53613ZM45.1083 3.53613H50V0.640011H45.1125C40.6167 0.640011 38.2208 2.7941 38.2208 5.9978C38.2208 9.20151 40.6167 11.3556 45.1125 11.3556H50V8.46229H45.1083C43.0333 8.46229 41.6667 7.74586 41.6667 5.9978C41.6667 4.24975 43.0333 3.53451 45.1083 3.53451V3.53613ZM21.6667 0.640011L19.8875 7.03582L18.1125 0.640011H12.2209V11.3556H15.5542V2.64008L17.975 11.356H21.8L24.2208 2.63568V11.356H27.5541V0.640011H21.6667Z" fill="#E30611"/>
</svg>
